<svg xmlns="http://www.w3.org/2000/svg" width="64" height="64" viewBox="0 0 64 64">
  <path id="icons8-adobe-xd_1_1_1" data-name="icons8-adobe-xd (1) (1) 1" d="M47.488,33.266a2.538,2.538,0,0,0-2.375,1.312,10.206,10.206,0,0,0-.75,4.669v1.561a10.759,10.759,0,0,0,.707,4.658,2.5,2.5,0,0,0,2.4,1.323,2.873,2.873,0,0,0,2.645-1.561V34.933A2.805,2.805,0,0,0,47.488,33.266ZM60.889,4H11.111A7.111,7.111,0,0,0,4,11.111V60.889A7.111,7.111,0,0,0,11.111,68H60.889A7.111,7.111,0,0,0,68,60.889V11.111A7.111,7.111,0,0,0,60.889,4ZM29.863,51.289,25.7,40.686l-4.142,10.6H14.446L21.739,36l-7.147-15.04h7.022L25.7,31.374l4.082-10.418H36.8L29.675,36l7.293,15.293Zm26.19,0H50.7L50.428,49A5.43,5.43,0,0,1,45.76,51.7,6.16,6.16,0,0,1,40.352,49q-1.867-2.709-1.906-7.957V39.332q0-5.542,1.874-8.27a6.2,6.2,0,0,1,5.458-2.731,5.264,5.264,0,0,1,4.334,2.251V19.289H56.05v32Z" transform="translate(-4 -4)" fill="#515c69"/>
</svg>
