<svg xmlns="http://www.w3.org/2000/svg" xmlns:xlink="http://www.w3.org/1999/xlink" width="80" height="64" viewBox="0 0 80 64">
  <defs>
    <clipPath id="clip-path">
      <rect id="Rectángulo_434" data-name="Rectángulo 434" width="80" height="64" transform="translate(0.25 0.25)" fill="#fff"/>
    </clipPath>
  </defs>
  <g id="bootstrap-logo-black_1" data-name="bootstrap-logo-black 1" transform="translate(-0.25 -0.25)" clip-path="url(#clip-path)">
    <path id="Trazado_3278" data-name="Trazado 3278" d="M16.866.25A7.99,7.99,0,0,0,9.075,8.614c.145,4.18-.043,9.595-1.4,14.009S4.011,29.851.25,30.211v4.078c3.761.36,6.063,3.159,7.424,7.587s1.546,9.83,1.4,14.01a7.99,7.99,0,0,0,7.791,8.364H63.64a7.99,7.99,0,0,0,7.791-8.364c-.145-4.18.043-9.595,1.4-14.01s3.658-7.228,7.419-7.587V30.211c-3.761-.36-6.057-3.159-7.419-7.587s-1.546-9.829-1.4-14.009A7.99,7.99,0,0,0,63.64.25ZM53.828,39.639c0,5.992-4.453,9.624-11.843,9.624H28.36a.313.313,0,0,1-.313-.314V15.537a.313.313,0,0,1,.313-.314H41.913c6.162,0,10.207,3.35,10.207,8.492a7.6,7.6,0,0,1-6.187,7.407v.189C50.651,31.831,53.828,35.109,53.828,39.639Zm-13.216-20.1H33.439V29.707h6.042c4.67,0,7.246-1.887,7.246-5.26C46.727,21.286,44.512,19.541,40.613,19.541Zm-7.173,14.2V44.946h7.438c4.862,0,7.438-1.958,7.438-5.638s-2.648-5.567-7.751-5.567Z" transform="translate(0 0)" fill="#515c69"/>
  </g>
</svg>
