<svg xmlns="http://www.w3.org/2000/svg" width="64" height="64" viewBox="0 0 64 64">
  <path id="icons8-git_1_1" data-name="icons8-git (1) 1" d="M63.771,29.4,37.5,3.129a5.72,5.72,0,0,0-8.1,0l-5.2,5.2,6.429,6.429a5.54,5.54,0,0,1,7.592,7.592l6.321,6.321a5.565,5.565,0,1,1-1.967,1.968L36.26,24.314a5.372,5.372,0,0,1-1.418.587V41.994a5.565,5.565,0,1,1-2.783,0V24.9a5.5,5.5,0,0,1-3.386-8.174l-6.435-6.435L3.129,29.4a5.721,5.721,0,0,0,0,8.1L29.4,63.771a5.721,5.721,0,0,0,8.1,0L63.771,37.5A5.72,5.72,0,0,0,63.771,29.4Z" transform="translate(-1.45 -1.45)" fill="#515c69"/>
</svg>
