<svg xmlns="http://www.w3.org/2000/svg" width="57.069" height="64" viewBox="0 0 57.069 64">
  <path id="icons8-html-5_1_1" data-name="icons8-html-5 (1) 1" d="M60.957,4.139a2.673,2.673,0,0,0-1.99-.889H7.238A2.672,2.672,0,0,0,4.583,6.215l5.882,52.95a2.668,2.668,0,0,0,1.921,2.273l19.98,5.708a2.642,2.642,0,0,0,1.469,0l19.98-5.708a2.671,2.671,0,0,0,1.921-2.273l5.884-52.95A2.661,2.661,0,0,0,60.957,4.139ZM48.138,23.1H24.285l.566,6.79H47.564l-1.7,20.06L33.111,54l-.126-.04-12.608-4.02-.689-8.174h6.176l.27,3.176L33.177,46.5,40.1,44.941l.735-8.582H19.223L17.551,16.606H48.694Z" transform="translate(-4.567 -3.25)" fill="#515c69"/>
</svg>
