<svg xmlns="http://www.w3.org/2000/svg" width="64" height="64" viewBox="0 0 64 64">
  <path id="icons8-adobe-illustrator_1_1_1" data-name="icons8-adobe-illustrator (1) (1) 1" d="M11.111,4A7.125,7.125,0,0,0,4,11.111V60.889A7.125,7.125,0,0,0,11.111,68H60.889A7.125,7.125,0,0,0,68,60.889V11.111A7.125,7.125,0,0,0,60.889,4ZM48.444,20a3.222,3.222,0,1,1-3.222,3.222A3.224,3.224,0,0,1,48.444,20ZM27.778,21.444h5.778l9.556,30.222H36.333l-1.778-6.111H26.444l-1.778,6.111H18.222Zm17.778,7.778h6.111V51.667H45.556Zm-14.889.333L27.778,40.222h5.778Z" transform="translate(-4 -4)" fill="#515c69"/>
</svg>
