<svg xmlns="http://www.w3.org/2000/svg" width="64" height="64" viewBox="0 0 64 64">
  <path id="icons8-javascript_1_1" data-name="icons8-javascript (1) 1" d="M62.19,2.25H6.315A4.067,4.067,0,0,0,2.25,6.315V62.185A4.067,4.067,0,0,0,6.315,66.25H62.185a4.066,4.066,0,0,0,4.065-4.06V6.315A4.066,4.066,0,0,0,62.19,2.25ZM37.3,51.292c0,6.089-3.571,8.863-8.786,8.863a10.7,10.7,0,0,1-9.5-6.1l4.792-2.9a4.989,4.989,0,0,0,4.351,2.9c1.935,0,3.048-.756,3.048-3.7V31.2h6.1Zm13.22,8.863a10.615,10.615,0,0,1-10.173-6.1l4.571-3.048c1.244,2.036,2.6,3.982,5.47,3.982,2.411,0,3.673-1.2,3.673-2.869,0-1.988-1.31-2.7-3.958-3.857l-1.452-.625c-4.2-1.786-6.988-4.024-6.988-8.762,0-4.357,3.328-7.679,8.518-7.679,3.7,0,6.351,1.286,8.268,4.655l-4.524,2.911c-1-1.792-2.071-2.494-3.744-2.494a2.53,2.53,0,0,0-2.78,2.494c0,1.744,1.077,2.446,3.571,3.53l1.452.625c4.946,2.113,7.732,4.274,7.732,9.131C60.155,57.286,56.042,60.155,50.518,60.155Z" transform="translate(-2.25 -2.25)" fill="#515c69"/>
</svg>
