<svg xmlns="http://www.w3.org/2000/svg" xmlns:xlink="http://www.w3.org/1999/xlink" width="64" height="64" viewBox="0 0 64 64">
  <defs>
    <clipPath id="clip-path">
      <rect id="Rectángulo_436" data-name="Rectángulo 436" width="64" height="64" transform="translate(0.25 0.25)" fill="#fff"/>
    </clipPath>
  </defs>
  <g id="icons8-logotipo-de-java-coffee-cup_1_1" data-name="icons8-logotipo-de-java-coffee-cup (1) 1" transform="translate(-0.25 -0.25)" clip-path="url(#clip-path)">
    <path id="Trazado_3280" data-name="Trazado 3280" d="M32.675.25C36.2,8.4,20.055,13.425,18.555,20.21c-1.375,6.235,9.59,13.48,9.6,13.48a48.542,48.542,0,0,1-4.56-8.72C20.77,18.18,40.8,12.035,32.675.25ZM43.4,11.53s-14.16.91-14.88,9.96c-.32,4.03,3.725,6.15,3.84,9.08.095,2.4-2.4,4.4-2.4,4.4s4.54-.865,5.96-4.52c1.575-4.055-3.07-6.795-2.6-10.04C33.765,17.3,43.4,11.53,43.4,11.53ZM21.155,32.45s-12.96-.185-12.96,3.48c0,3.83,16.965,4.115,29.08,1.76,0,0,3.22-2.215,4.08-3.04-7.94,1.62-26.04,1.8-26.04.4C15.315,33.76,21.155,32.45,21.155,32.45Zm24.92,0a7.8,7.8,0,0,0-3.88,1.48c2.92-.63,5.4,1.18,5.4,3.24,0,4.64-6.72,9-6.72,9s10.4-1.18,10.4-8.8A4.573,4.573,0,0,0,46.075,32.45Zm-28.04,7.12c-1.99,0-4.96,1.56-4.96,3.04,0,2.975,14.96,5.265,26.04.92l-3.84-2.36C27.765,43.575,13.935,42.79,18.035,39.57Zm1.84,6.68c-2.725,0-4.52,1.645-4.52,2.88,0,3.82,16.275,4.205,22.72.32l-4.08-2.6C29.18,48.885,17.095,49.2,19.875,46.25Zm-9.08,3.44c-4.44-.09-7.32,1.905-7.32,3.56,0,8.8,45.44,8.4,45.44-.6,0-1.5-1.725-2.22-2.36-2.56,3.715,8.6-37.2,7.915-37.2,2.84,0-1.155,3.01-2.26,5.8-1.72l-2.36-1.36A15.8,15.8,0,0,0,10.795,49.69Zm42.92,5.92c-6.91,6.55-24.42,8.925-42.04,4.88C29.29,67.7,53.63,63.655,53.715,55.61Z" transform="translate(3.655 0)" fill="#515c69"/>
  </g>
</svg>
