<svg xmlns="http://www.w3.org/2000/svg" width="61.908" height="64" viewBox="0 0 61.908 64">
  <g id="jira-seeklogo.com" transform="translate(-0.002)">
    <path id="Trazado_3324" data-name="Trazado 3324" d="M61.161,30.208,33.622,2.669,30.953,0,10.222,20.731.742,30.208a2.54,2.54,0,0,0,0,3.583l18.94,18.94L30.953,64,51.681,43.268l.323-.32,9.157-9.143a2.534,2.534,0,0,0,0-3.6ZM30.953,41.463,21.49,32l9.463-9.463L40.413,32Z" fill="#515c69"/>
    <path id="Trazado_3325" data-name="Trazado 3325" d="M56.394,22.73A15.929,15.929,0,0,1,56.326.27L35.62,20.967,46.889,32.236Z" transform="translate(-25.441 -0.193)" fill="#515c69"/>
    <path id="Trazado_3326" data-name="Trazado 3326" d="M117.816,111.91,108.33,121.4a15.934,15.934,0,0,1,0,22.531l20.763-20.751Z" transform="translate(-77.377 -79.936)" fill="#515c69"/>
  </g>
</svg>
