<svg xmlns="http://www.w3.org/2000/svg" width="64" height="64" viewBox="0 0 64 64">
  <path id="Vector" d="M7.111,0A7.132,7.132,0,0,0,0,7.111V56.889A7.132,7.132,0,0,0,7.111,64H56.889A7.132,7.132,0,0,0,64,56.889V7.111A7.132,7.132,0,0,0,56.889,0Zm6.722,17.778h9.6c8.27,0,9.257,7.611,9.257,9.264,0,6.613-4.628,8.923-8.931,8.923H19.785v9.924H13.833Zm5.951,4.632V31.34h3.972c2.645,0,3.306-1.984,3.306-4.3s-.987-4.632-3.306-4.632Zm23.486,2.313c4.96,0,7.6,2.981,7.6,6.618H45.257c0-1.653-.663-2.646-1.986-2.646a1.909,1.909,0,0,0-1.986,1.986c0,3.307,9.6,2.312,9.6,9.59,0,4.96-4.966,5.951-7.611,5.951-5.291,0-7.937-3.638-7.937-6.944h5.292a2.64,2.64,0,0,0,2.646,2.979c1.323,0,2.313-.664,2.313-1.986,0-2.976-9.6-2.647-9.6-9.264C35.986,26.047,40.622,24.722,43.271,24.722Z" fill="#515c69"/>
</svg>
