<svg xmlns="http://www.w3.org/2000/svg" width="64" height="64" viewBox="0 0 64 64">
  <g id="postman-icon" transform="translate(-0.001 0)">
    <path id="Sustracción_2" data-name="Sustracción 2" d="M32.006,64h0a32.5,32.5,0,0,1-4.1-.262A32.028,32.028,0,0,1,.263,27.9a31.791,31.791,0,0,1,10.7-20A31.977,31.977,0,0,1,36.095.262,32,32,0,0,1,32.006,64ZM28.24,33.743h0L25.889,36.1a.331.331,0,0,0-.075.107L15.707,46.31a.32.32,0,0,0-.151.087L12.8,49.149a.792.792,0,0,0-.256.512.835.835,0,0,0,.768.928l6.559.448a.308.308,0,0,0,.288-.192.282.282,0,0,0,0-.274c.028-.012.061-.026.1-.045a1.012,1.012,0,0,0,.48-1.088l-.544-2.272a64.469,64.469,0,0,0,13.725-8.8l.224-.192a.3.3,0,0,0,.095-.093,82.336,82.336,0,0,0,8.08-8.428c1.966-2.5,2.9-4.458,2.926-6.165a3.948,3.948,0,0,0-.3-1.622,5.425,5.425,0,0,0,4.876-.3c.018-.005.04-.014.065-.023l.006,0,.089-.032a5.242,5.242,0,0,0,1.056-.832A5.564,5.564,0,0,0,51,12.9l-.1-.064-.008-.008a5.5,5.5,0,0,0-8.812,6.248,2.908,2.908,0,0,0-1.4-.359c-1.215,0-2.778.751-4.919,2.363a102.111,102.111,0,0,0-9.786,8.938.314.314,0,0,0-.036.041l-.029.022-3.263,3.263a.883.883,0,0,0-.256.608.829.829,0,0,0,.832.864.405.405,0,0,0,.1-.016.4.4,0,0,1,.1-.016l4.813-1.039Z" transform="translate(0.001 0)" fill="#515c69"/>
  </g>
</svg>
