<svg xmlns="http://www.w3.org/2000/svg" width="71.779" height="64" viewBox="0 0 71.779 64">
  <g id="logo-react_1" data-name="logo-react 1" transform="translate(-1.188 -2.711)">
    <path id="Trazado_3271" data-name="Trazado 3271" d="M60.2,23.454q-1.147-.392-2.31-.73.193-.785.356-1.579c1.749-8.508.606-15.363-3.3-17.619C51.211,1.361,45.08,3.617,38.9,9.012q-.912.8-1.787,1.645-.583-.562-1.2-1.1c-6.482-5.769-12.979-8.2-16.879-5.935-3.738,2.17-4.849,8.613-3.275,16.677q.236,1.2.531,2.382c-.92.262-1.808.541-2.657.837C6.041,26.173,1.187,30.334,1.187,34.65c0,4.459,5.21,8.93,13.124,11.641q.963.328,1.944.609-.318,1.27-.564,2.568c-1.5,7.925-.329,14.216,3.4,16.372,3.853,2.227,10.318-.061,16.619-5.579q.748-.655,1.5-1.383.945.914,1.944,1.773c6.1,5.26,12.125,7.385,15.85,5.223,3.85-2.234,5.1-8.993,3.477-17.216q-.187-.942-.431-1.923.682-.2,1.335-.417c8.224-2.732,13.582-7.149,13.582-11.663C72.963,30.318,67.954,26.129,60.2,23.454ZM40.912,11.33c5.3-4.622,10.25-6.446,12.508-5.142,2.4,1.389,3.338,6.991,1.827,14.337q-.15.718-.323,1.431a72.946,72.946,0,0,0-9.6-1.519,71.956,71.956,0,0,0-6.067-7.589q.8-.781,1.648-1.518ZM22.381,38.337q.973,1.884,2.035,3.722,1.081,1.875,2.253,3.7a65.1,65.1,0,0,1-6.615-1.066C20.688,42.636,21.469,40.505,22.381,38.337Zm0-7.227c-.9-2.122-1.657-4.209-2.28-6.225,2.049-.459,4.232-.834,6.508-1.118q-1.144,1.785-2.2,3.623t-2.031,3.72Zm1.63,3.614q1.418-2.956,3.053-5.8t3.48-5.552c2.135-.162,4.325-.247,6.536-.247s4.414.085,6.548.248q1.826,2.7,3.459,5.533t3.094,5.772q-1.442,2.967-3.086,5.823-1.632,2.841-3.439,5.569c-2.131.15-4.336.232-6.579.232s-4.407-.07-6.5-.206q-1.859-2.72-3.508-5.576t-3.062-5.8Zm25.737,7.314q1.084-1.881,2.081-3.811a65.822,65.822,0,0,1,2.411,6.328,64.941,64.941,0,0,1-6.7,1.144Q48.682,43.891,49.748,42.038ZM51.8,31.112q-.993-1.891-2.065-3.738-1.047-1.821-2.181-3.6c2.289.29,4.486.676,6.545,1.147a65.757,65.757,0,0,1-2.3,6.189ZM37.11,15.044a65.789,65.789,0,0,1,4.224,5.111q-4.24-.2-8.485,0C34.245,18.31,35.673,16.6,37.11,15.044ZM20.576,6.279c2.4-1.394,7.711.6,13.308,5.573.357.318.718.652,1.077,1a73.482,73.482,0,0,0-6.11,7.583,74.619,74.619,0,0,0-9.579,1.5q-.274-1.1-.493-2.216C17.425,12.8,18.321,7.587,20.576,6.279Zm-3.5,37.66q-.9-.256-1.772-.555A25.962,25.962,0,0,1,6.93,38.926C5.153,37.4,4.253,35.882,4.253,34.65c0-2.618,3.9-5.959,10.4-8.224q1.225-.426,2.47-.779a73.809,73.809,0,0,0,3.5,9.084,75.12,75.12,0,0,0-3.542,9.208ZM33.693,57.945a25.984,25.984,0,0,1-8.036,5.042c-2.21.782-3.97.8-5.033.19C18.36,61.869,17.418,56.816,18.7,50.04q.229-1.2.523-2.393a71.886,71.886,0,0,0,9.673,1.4,74.948,74.948,0,0,0,6.161,7.626Q34.391,57.334,33.693,57.945Zm3.5-3.472c-1.454-1.572-2.9-3.311-4.319-5.18q2.062.081,4.2.081,2.193,0,4.336-.1a65.634,65.634,0,0,1-4.217,5.195Zm18.62,4.275c-.428,2.309-1.287,3.849-2.351,4.465-2.262,1.313-7.1-.393-12.316-4.893-.6-.514-1.2-1.066-1.8-1.645a72.469,72.469,0,0,0,6.016-7.656,71.478,71.478,0,0,0,9.72-1.5q.22.888.389,1.74a26.048,26.048,0,0,1,.347,9.491Zm2.6-15.348c-.392.13-.8.256-1.205.378a72.206,72.206,0,0,0-3.635-9.113,72.038,72.038,0,0,0,3.493-8.981c.734.214,1.448.438,2.134.676C65.845,28.652,69.9,32.043,69.9,34.65c0,2.781-4.377,6.391-11.481,8.751Z" transform="translate(0 0)" fill="#515c69"/>
    <path id="Trazado_3272" data-name="Trazado 3272" d="M15.25,17.743a2.514,2.514,0,1,0-.962-.193A2.52,2.52,0,0,0,15.25,17.743Z" transform="translate(21.841 19.41)" fill="#515c69"/>
  </g>
</svg>
