<svg xmlns="http://www.w3.org/2000/svg" xmlns:xlink="http://www.w3.org/1999/xlink" width="64" height="64" viewBox="0 0 64 64">
  <defs>
    <clipPath id="clip-path">
      <rect id="Rectángulo_433" data-name="Rectángulo 433" width="64" height="64" transform="translate(0.25 0.25)" fill="#fff"/>
    </clipPath>
  </defs>
  <g id="icons8-sass_1_2" data-name="icons8-sass (1) 2" transform="translate(-0.25 -0.25)" clip-path="url(#clip-path)">
    <path id="Trazado_3277" data-name="Trazado 3277" d="M55.329,31.58a13.166,13.166,0,0,0-5.8,1.349,12.146,12.146,0,0,1-1.3-3,7.992,7.992,0,0,1-.113-2.524,22.2,22.2,0,0,1,.756-2.72c-.009-.114-.14-.663-1.43-.673s-2.394.248-2.524.589a12.54,12.54,0,0,0-.532,1.907c-.227,1.17-2.575,5.343-3.91,7.525a7.819,7.819,0,0,1-.884-2.2,7.992,7.992,0,0,1-.113-2.524,22.2,22.2,0,0,1,.756-2.72c-.009-.114-.14-.663-1.43-.673s-2.394.248-2.524.589-.269,1.137-.532,1.907-3.388,7.73-4.206,9.533c-.417.919-.78,1.658-1.036,2.162a0,0,0,0,1,0,0s-.015.033-.044.091c-.219.429-.349.667-.349.667l0,.009c-.174.315-.36.608-.452.608a4.053,4.053,0,0,1,.028-1.99c.465-2.414,1.581-6.18,1.571-6.309-.005-.067.207-.722-.73-1.066a1.166,1.166,0,0,0-1.318.224c-.081,0-.141.2-.141.2S30.1,28.3,27.145,28.3c-1.843,0-4.4,2.017-5.658,3.845-.794.433-2.493,1.361-4.3,2.351l-2.07,1.139c-.046-.05-.091-.1-.138-.151C11.406,31.667,4.8,28.969,5.076,23.84c.1-1.865.75-6.775,12.7-12.731,9.791-4.879,17.629-3.537,18.984-.561C38.7,14.8,32.573,22.7,22.406,23.84c-3.875.434-5.914-1.068-6.422-1.627-.534-.589-.613-.616-.813-.5-.325.18-.119.7,0,1.01a6.021,6.021,0,0,0,3.674,2.888c1.869.613,6.417.95,11.918-1.178,6.161-2.383,10.971-9.012,9.559-14.554C38.885,4.239,29.541,2.387,20.7,5.528,15.434,7.4,9.737,10.333,5.64,14.164.768,18.721-.008,22.686.312,24.343c1.138,5.888,9.252,9.722,12.5,12.563l-.448.247C10.736,37.959,4.552,41.2,3,44.617c-1.755,3.88.279,6.664,1.627,7.039a9.984,9.984,0,0,0,10.757-4.361,10.815,10.815,0,0,0,.964-9.94c-.013-.026-.028-.05-.041-.076.421-.25.85-.5,1.275-.751.829-.486,1.644-.941,2.35-1.326a15.794,15.794,0,0,0-.836,4.256c-.177,2.2.726,5.05,1.907,6.17a2.092,2.092,0,0,0,1.542.5c1.375,0,2-1.143,2.692-2.5.847-1.659,1.6-3.589,1.6-3.589s-.943,5.216,1.627,5.216c.936,0,1.878-1.215,2.3-1.833a.058.058,0,0,1,0,.01s.024-.04.072-.122c.1-.148.152-.243.152-.243s0-.01.005-.027c.376-.653,1.211-2.143,2.463-4.6,1.617-3.174,3.168-7.15,3.168-7.15a21.276,21.276,0,0,0,.617,2.579,24.061,24.061,0,0,0,1.335,2.994c-.375.521-.605.819-.605.819s0,.005.006.015c-.3.4-.636.827-.988,1.247a36.109,36.109,0,0,0-3,3.758,1.025,1.025,0,0,0,.28,1.373,2.518,2.518,0,0,0,1.571.252,7.164,7.164,0,0,0,2.353-.535,7.879,7.879,0,0,0,2.022-1.064,4.5,4.5,0,0,0,1.935-3.982,8.064,8.064,0,0,0-.735-2.813c.114-.164.228-.328.342-.5a53.5,53.5,0,0,0,3.5-6.057,21.277,21.277,0,0,0,.617,2.579,18.064,18.064,0,0,0,1.135,2.572,11.008,11.008,0,0,0-3.407,4.41c-.739,2.126-.16,3.09.925,3.309a3.335,3.335,0,0,0,1.709-.347A7.9,7.9,0,0,0,48.4,40.8a4.846,4.846,0,0,0,2.383-3.954,7.441,7.441,0,0,0-.54-2.34,12.222,12.222,0,0,1,6.205-.717c5.567.65,6.659,4.125,6.45,5.58a3.671,3.671,0,0,1-1.766,2.5c-.39.242-.509.325-.476.5.047.261.228.251.561.195A4.34,4.34,0,0,0,64.248,38.7C64.381,35.293,61.115,31.549,55.329,31.58Zm-42.9,14.464c-1.843,2.011-4.42,2.771-5.524,2.131-1.193-.691-.721-3.653,1.542-5.787a29.309,29.309,0,0,1,4.34-3.237l1.143-.687.124-.07v0l.285-.172A8,8,0,0,1,12.426,46.044Zm13.431-9.132c-.643,1.565-1.987,5.571-2.8,5.356-.7-.184-1.13-3.229-.141-6.225a13.873,13.873,0,0,1,2.188-4.01c1.006-1.125,2.115-1.494,2.383-1.037C27.827,31.577,26.26,35.931,25.857,36.912Zm11.1,5.3c-.273.142-.522.232-.637.163-.086-.051.113-.238.113-.238s1.388-1.494,1.935-2.173c.317-.4.687-.865,1.088-1.39,0,.052.005.1.005.156C39.453,40.514,37.725,41.721,36.955,42.208ZM45.5,40.258c-.2-.145-.169-.612.5-2.066a7.8,7.8,0,0,1,1.9-2.452,3.493,3.493,0,0,1-2.4,4.518Z" transform="translate(-0.001 4.257)" fill="#515c69"/>
  </g>
</svg>
