<svg xmlns="http://www.w3.org/2000/svg" width="64" height="64.001" viewBox="0 0 64 64.001">
  <g id="trello-tile" transform="translate(-653 -289)">
    <path id="Exclusión_2" data-name="Exclusión 2" d="M54.4,64H9.6A9.611,9.611,0,0,1,0,54.4V9.6A9.611,9.611,0,0,1,9.6,0H54.4A9.611,9.611,0,0,1,64,9.6V54.4A9.611,9.611,0,0,1,54.4,64ZM20.363,11.636a7.905,7.905,0,0,0-7.9,7.9V41.144a7.9,7.9,0,0,0,15.792,0V19.533A7.906,7.906,0,0,0,20.363,11.636Zm23.689,0a8.322,8.322,0,0,0-8.312,8.312v7.481a8.312,8.312,0,0,0,16.624,0V19.948A8.321,8.321,0,0,0,44.052,11.636Z" transform="translate(653 289)" fill="#515c69"/>
  </g>
</svg>
