<svg xmlns="http://www.w3.org/2000/svg" width="64" height="64.001" viewBox="0 0 64 64.001">
  <g id="Typescript_logo_2020" transform="translate(0 0)">
    <path id="Sustracción_1" data-name="Sustracción 1" d="M3447.751,1436h-51.5a6.257,6.257,0,0,1-6.25-6.251v-51.5a6.257,6.257,0,0,1,6.25-6.25h51.5a6.257,6.257,0,0,1,6.25,6.25v51.5A6.257,6.257,0,0,1,3447.751,1436Zm-18.133-13.073h0v6.258a13.338,13.338,0,0,0,3.61,1.174,23.929,23.929,0,0,0,4.391.391,20.612,20.612,0,0,0,4.275-.43,10.536,10.536,0,0,0,3.551-1.417,7.275,7.275,0,0,0,2.417-2.581,9.1,9.1,0,0,0,.382-6.923,7.022,7.022,0,0,0-1.468-2.278,10.787,10.787,0,0,0-2.3-1.789,24.656,24.656,0,0,0-3.022-1.5c-.814-.336-1.558-.669-2.21-.987a11.263,11.263,0,0,1-1.663-.978,4.275,4.275,0,0,1-1.057-1.056,2.235,2.235,0,0,1-.372-1.262,2.111,2.111,0,0,1,.333-1.163,2.876,2.876,0,0,1,.939-.89,5.042,5.042,0,0,1,1.487-.577,8.67,8.67,0,0,1,1.957-.205,12.415,12.415,0,0,1,1.652.117,13.143,13.143,0,0,1,1.751.362,12.178,12.178,0,0,1,1.712.616,9.382,9.382,0,0,1,1.535.86v-5.847a15.336,15.336,0,0,0-3.12-.812,25.6,25.6,0,0,0-3.884-.264,18.174,18.174,0,0,0-4.225.479,10.8,10.8,0,0,0-3.511,1.5,7.513,7.513,0,0,0-2.4,2.591,7.635,7.635,0,0,0-.88,3.765,7.333,7.333,0,0,0,1.614,4.772,12.353,12.353,0,0,0,4.9,3.344c.863.353,1.673.7,2.407,1.037a13.39,13.39,0,0,1,1.927,1.056,5.07,5.07,0,0,1,1.282,1.193,2.446,2.446,0,0,1,.469,1.467,2.255,2.255,0,0,1-.293,1.124,2.616,2.616,0,0,1-.89.9,4.906,4.906,0,0,1-1.487.6,8.951,8.951,0,0,1-2.083.215,11.947,11.947,0,0,1-4.03-.714,12.07,12.07,0,0,1-3.7-2.141Zm-16.879-15.418v22.865h6.359V1407.51h8.028v-5.135H3404.75v5.135Z" transform="translate(-3390 -1372)" fill="#515c69"/>
  </g>
</svg>
