<svg xmlns="http://www.w3.org/2000/svg" width="22" height="22" viewBox="0 0 22 22">
  <path id="Trazado_3316" data-name="Trazado 3316" d="M13,11.9a5.5,5.5,0,0,1,5.5,5.5V24H7.5V17.4A5.5,5.5,0,0,1,13,11.9ZM5.617,15.207a7.681,7.681,0,0,0-.308,1.815L5.3,17.4V24H2V19.05a3.85,3.85,0,0,1,3.432-3.828l.186-.015Zm14.766,0A3.851,3.851,0,0,1,24,19.05V24H20.7V17.4A7.68,7.68,0,0,0,20.383,15.207ZM5.85,8.6A2.75,2.75,0,1,1,3.1,11.35,2.75,2.75,0,0,1,5.85,8.6Zm14.3,0a2.75,2.75,0,1,1-2.75,2.75A2.75,2.75,0,0,1,20.15,8.6ZM13,2A4.4,4.4,0,1,1,8.6,6.4,4.4,4.4,0,0,1,13,2Z" transform="translate(-2 -2)"/>
</svg>
