<svg xmlns="http://www.w3.org/2000/svg" xmlns:xlink="http://www.w3.org/1999/xlink" width="509" height="509" viewBox="0 0 509 509">
  <defs>
    <clipPath id="clip-path">
      <rect id="Rectángulo_410" data-name="Rectángulo 410" width="509" height="509" transform="translate(-1411 -5849)" fill="none" stroke="#d0c4e9" stroke-width="1"/>
    </clipPath>
  </defs>
  <g id="Grupo_45" data-name="Grupo 45" transform="translate(1436 5863)">
    <path id="Trazado_3263" data-name="Trazado 3263" d="M0,0H509V509H0Z" transform="translate(-1436 -5863)" fill="#d0c4e9"/>
    <g id="Enmascarar_grupo_1" data-name="Enmascarar grupo 1" transform="translate(-25 -14)" clip-path="url(#clip-path)">
      <g id="Grupo_44" data-name="Grupo 44" transform="translate(1.812 -11)">
        <path id="Trazado_3261" data-name="Trazado 3261" d="M-1476.953-5742.148s187.327-52.885,249.77,0-34.088,158.655,0,211.54,136.354,0,136.354,0" transform="translate(-65.67 -5)" fill="none" stroke="#c7b9e5" stroke-linecap="round" stroke-width="40"/>
        <g id="Elipse_176" data-name="Elipse 176" transform="translate(-1128 -5562)" fill="none" stroke="#c7b9e5" stroke-width="40">
          <circle cx="177" cy="177" r="177" stroke="none"/>
          <circle cx="177" cy="177" r="157" fill="none"/>
        </g>
        <g id="Elipse_178" data-name="Elipse 178" transform="translate(-1056 -5490)" fill="none" stroke="#c7b9e5" stroke-width="40">
          <circle cx="105" cy="105" r="105" stroke="none"/>
          <circle cx="105" cy="105" r="85" fill="none"/>
        </g>
        <path id="Trazado_3262" data-name="Trazado 3262" d="M-1108.671-5892.52v161.84h99.4l135.9-135.9" fill="none" stroke="#c7b9e5" stroke-width="40"/>
        <circle id="Elipse_179" data-name="Elipse 179" cx="20" cy="20" r="20" transform="translate(-1360 -5440)" fill="#c7b9e5"/>
        <circle id="Elipse_181" data-name="Elipse 181" cx="20" cy="20" r="20" transform="translate(-1280 -5440)" fill="#c7b9e5"/>
      </g>
    </g>
  </g>
</svg>
