<svg xmlns="http://www.w3.org/2000/svg" width="567" height="567" viewBox="0 0 567 567">
  <g id="Grupo_16" data-name="Grupo 16" transform="translate(-4013 184)">
    <circle id="Elipse_8" data-name="Elipse 8" cx="12.5" cy="12.5" r="12.5" transform="translate(4013 13)" fill="#edf6f9"/>
    <circle id="Elipse_27" data-name="Elipse 27" cx="12.5" cy="12.5" r="12.5" transform="translate(4210 13)" fill="#edf6f9"/>
    <circle id="Elipse_43" data-name="Elipse 43" cx="12.5" cy="12.5" r="12.5" transform="translate(4210 210)" fill="#edf6f9"/>
    <circle id="Elipse_59" data-name="Elipse 59" cx="12.5" cy="12.5" r="12.5" transform="translate(4013 210)" fill="#edf6f9"/>
    <circle id="Elipse_75" data-name="Elipse 75" cx="12.5" cy="12.5" r="12.5" transform="translate(4407 210)" fill="#edf6f9"/>
    <circle id="Elipse_91" data-name="Elipse 91" cx="12.5" cy="12.5" r="12.5" transform="translate(4407 13)" fill="#edf6f9"/>
    <circle id="Elipse_107" data-name="Elipse 107" cx="12.5" cy="12.5" r="12.5" transform="translate(4407 -184)" fill="#edf6f9"/>
    <circle id="Elipse_123" data-name="Elipse 123" cx="12.5" cy="12.5" r="12.5" transform="translate(4210 -184)" fill="#edf6f9"/>
    <circle id="Elipse_139" data-name="Elipse 139" cx="12.5" cy="12.5" r="12.5" transform="translate(4013 -184)" fill="#edf6f9"/>
    <ellipse id="Elipse_17" data-name="Elipse 17" cx="12" cy="12.5" rx="12" ry="12.5" transform="translate(4112 13)" fill="#edf6f9"/>
    <ellipse id="Elipse_35" data-name="Elipse 35" cx="12" cy="12.5" rx="12" ry="12.5" transform="translate(4309 13)" fill="#edf6f9"/>
    <ellipse id="Elipse_51" data-name="Elipse 51" cx="12" cy="12.5" rx="12" ry="12.5" transform="translate(4309 210)" fill="#edf6f9"/>
    <ellipse id="Elipse_67" data-name="Elipse 67" cx="12" cy="12.5" rx="12" ry="12.5" transform="translate(4112 210)" fill="#edf6f9"/>
    <circle id="Elipse_83" data-name="Elipse 83" cx="12.5" cy="12.5" r="12.5" transform="translate(4506 210)" fill="#edf6f9"/>
    <circle id="Elipse_99" data-name="Elipse 99" cx="12.5" cy="12.5" r="12.5" transform="translate(4506 13)" fill="#edf6f9"/>
    <circle id="Elipse_115" data-name="Elipse 115" cx="12.5" cy="12.5" r="12.5" transform="translate(4506 -184)" fill="#edf6f9"/>
    <ellipse id="Elipse_131" data-name="Elipse 131" cx="12" cy="12.5" rx="12" ry="12.5" transform="translate(4309 -184)" fill="#edf6f9"/>
    <ellipse id="Elipse_147" data-name="Elipse 147" cx="12" cy="12.5" rx="12" ry="12.5" transform="translate(4112 -184)" fill="#edf6f9"/>
    <circle id="Elipse_21" data-name="Elipse 21" cx="12" cy="12" r="12" transform="translate(4112 112)" fill="#edf6f9"/>
    <circle id="Elipse_36" data-name="Elipse 36" cx="12" cy="12" r="12" transform="translate(4309 112)" fill="#edf6f9"/>
    <ellipse id="Elipse_52" data-name="Elipse 52" cx="12" cy="12.5" rx="12" ry="12.5" transform="translate(4309 309)" fill="#edf6f9"/>
    <ellipse id="Elipse_68" data-name="Elipse 68" cx="12" cy="12.5" rx="12" ry="12.5" transform="translate(4112 309)" fill="#edf6f9"/>
    <circle id="Elipse_84" data-name="Elipse 84" cx="12.5" cy="12.5" r="12.5" transform="translate(4506 309)" fill="#edf6f9"/>
    <ellipse id="Elipse_100" data-name="Elipse 100" cx="12.5" cy="12" rx="12.5" ry="12" transform="translate(4506 112)" fill="#edf6f9"/>
    <ellipse id="Elipse_116" data-name="Elipse 116" cx="12.5" cy="12" rx="12.5" ry="12" transform="translate(4506 -85)" fill="#edf6f9"/>
    <circle id="Elipse_132" data-name="Elipse 132" cx="12" cy="12" r="12" transform="translate(4309 -85)" fill="#edf6f9"/>
    <circle id="Elipse_148" data-name="Elipse 148" cx="12" cy="12" r="12" transform="translate(4112 -85)" fill="#edf6f9"/>
    <ellipse id="Elipse_25" data-name="Elipse 25" cx="12.5" cy="12" rx="12.5" ry="12" transform="translate(4013 112)" fill="#edf6f9"/>
    <ellipse id="Elipse_29" data-name="Elipse 29" cx="12.5" cy="12" rx="12.5" ry="12" transform="translate(4210 112)" fill="#edf6f9"/>
    <circle id="Elipse_45" data-name="Elipse 45" cx="12.5" cy="12.5" r="12.5" transform="translate(4210 309)" fill="#edf6f9"/>
    <circle id="Elipse_61" data-name="Elipse 61" cx="12.5" cy="12.5" r="12.5" transform="translate(4013 309)" fill="#edf6f9"/>
    <circle id="Elipse_77" data-name="Elipse 77" cx="12.5" cy="12.5" r="12.5" transform="translate(4407 309)" fill="#edf6f9"/>
    <ellipse id="Elipse_93" data-name="Elipse 93" cx="12.5" cy="12" rx="12.5" ry="12" transform="translate(4407 112)" fill="#edf6f9"/>
    <ellipse id="Elipse_109" data-name="Elipse 109" cx="12.5" cy="12" rx="12.5" ry="12" transform="translate(4407 -85)" fill="#edf6f9"/>
    <ellipse id="Elipse_125" data-name="Elipse 125" cx="12.5" cy="12" rx="12.5" ry="12" transform="translate(4210 -85)" fill="#edf6f9"/>
    <ellipse id="Elipse_141" data-name="Elipse 141" cx="12.5" cy="12" rx="12.5" ry="12" transform="translate(4013 -85)" fill="#edf6f9"/>
    <ellipse id="Elipse_10" data-name="Elipse 10" cx="12.5" cy="12" rx="12.5" ry="12" transform="translate(4013 63)" fill="#edf6f9"/>
    <ellipse id="Elipse_28" data-name="Elipse 28" cx="12.5" cy="12" rx="12.5" ry="12" transform="translate(4210 63)" fill="#edf6f9"/>
    <ellipse id="Elipse_44" data-name="Elipse 44" cx="12.5" cy="12" rx="12.5" ry="12" transform="translate(4210 260)" fill="#edf6f9"/>
    <ellipse id="Elipse_60" data-name="Elipse 60" cx="12.5" cy="12" rx="12.5" ry="12" transform="translate(4013 260)" fill="#edf6f9"/>
    <ellipse id="Elipse_76" data-name="Elipse 76" cx="12.5" cy="12" rx="12.5" ry="12" transform="translate(4407 260)" fill="#edf6f9"/>
    <ellipse id="Elipse_92" data-name="Elipse 92" cx="12.5" cy="12" rx="12.5" ry="12" transform="translate(4407 63)" fill="#edf6f9"/>
    <circle id="Elipse_108" data-name="Elipse 108" cx="12.5" cy="12.5" r="12.5" transform="translate(4407 -135)" fill="#edf6f9"/>
    <circle id="Elipse_124" data-name="Elipse 124" cx="12.5" cy="12.5" r="12.5" transform="translate(4210 -135)" fill="#edf6f9"/>
    <circle id="Elipse_140" data-name="Elipse 140" cx="12.5" cy="12.5" r="12.5" transform="translate(4013 -135)" fill="#edf6f9"/>
    <circle id="Elipse_16" data-name="Elipse 16" cx="12" cy="12" r="12" transform="translate(4112 63)" fill="#edf6f9"/>
    <circle id="Elipse_37" data-name="Elipse 37" cx="12" cy="12" r="12" transform="translate(4309 63)" fill="#edf6f9"/>
    <circle id="Elipse_53" data-name="Elipse 53" cx="12" cy="12" r="12" transform="translate(4309 260)" fill="#edf6f9"/>
    <circle id="Elipse_69" data-name="Elipse 69" cx="12" cy="12" r="12" transform="translate(4112 260)" fill="#edf6f9"/>
    <ellipse id="Elipse_85" data-name="Elipse 85" cx="12.5" cy="12" rx="12.5" ry="12" transform="translate(4506 260)" fill="#edf6f9"/>
    <ellipse id="Elipse_101" data-name="Elipse 101" cx="12.5" cy="12" rx="12.5" ry="12" transform="translate(4506 63)" fill="#edf6f9"/>
    <circle id="Elipse_117" data-name="Elipse 117" cx="12.5" cy="12.5" r="12.5" transform="translate(4506 -135)" fill="#edf6f9"/>
    <ellipse id="Elipse_133" data-name="Elipse 133" cx="12" cy="12.5" rx="12" ry="12.5" transform="translate(4309 -135)" fill="#edf6f9"/>
    <ellipse id="Elipse_149" data-name="Elipse 149" cx="12" cy="12.5" rx="12" ry="12.5" transform="translate(4112 -135)" fill="#edf6f9"/>
    <ellipse id="Elipse_20" data-name="Elipse 20" cx="12" cy="12.5" rx="12" ry="12.5" transform="translate(4112 161)" fill="#edf6f9"/>
    <ellipse id="Elipse_38" data-name="Elipse 38" cx="12" cy="12.5" rx="12" ry="12.5" transform="translate(4309 161)" fill="#edf6f9"/>
    <ellipse id="Elipse_54" data-name="Elipse 54" cx="12" cy="12.5" rx="12" ry="12.5" transform="translate(4309 358)" fill="#edf6f9"/>
    <ellipse id="Elipse_70" data-name="Elipse 70" cx="12" cy="12.5" rx="12" ry="12.5" transform="translate(4112 358)" fill="#edf6f9"/>
    <circle id="Elipse_86" data-name="Elipse 86" cx="12.5" cy="12.5" r="12.5" transform="translate(4506 358)" fill="#edf6f9"/>
    <circle id="Elipse_102" data-name="Elipse 102" cx="12.5" cy="12.5" r="12.5" transform="translate(4506 161)" fill="#edf6f9"/>
    <circle id="Elipse_118" data-name="Elipse 118" cx="12.5" cy="12.5" r="12.5" transform="translate(4506 -36)" fill="#edf6f9"/>
    <ellipse id="Elipse_134" data-name="Elipse 134" cx="12" cy="12.5" rx="12" ry="12.5" transform="translate(4309 -36)" fill="#edf6f9"/>
    <ellipse id="Elipse_150" data-name="Elipse 150" cx="12" cy="12.5" rx="12" ry="12.5" transform="translate(4112 -36)" fill="#edf6f9"/>
    <circle id="Elipse_24" data-name="Elipse 24" cx="12.5" cy="12.5" r="12.5" transform="translate(4013 161)" fill="#edf6f9"/>
    <circle id="Elipse_30" data-name="Elipse 30" cx="12.5" cy="12.5" r="12.5" transform="translate(4210 161)" fill="#edf6f9"/>
    <circle id="Elipse_46" data-name="Elipse 46" cx="12.5" cy="12.5" r="12.5" transform="translate(4210 358)" fill="#edf6f9"/>
    <circle id="Elipse_62" data-name="Elipse 62" cx="12.5" cy="12.5" r="12.5" transform="translate(4013 358)" fill="#edf6f9"/>
    <circle id="Elipse_78" data-name="Elipse 78" cx="12.5" cy="12.5" r="12.5" transform="translate(4407 358)" fill="#edf6f9"/>
    <circle id="Elipse_94" data-name="Elipse 94" cx="12.5" cy="12.5" r="12.5" transform="translate(4407 161)" fill="#edf6f9"/>
    <circle id="Elipse_110" data-name="Elipse 110" cx="12.5" cy="12.5" r="12.5" transform="translate(4407 -36)" fill="#edf6f9"/>
    <circle id="Elipse_126" data-name="Elipse 126" cx="12.5" cy="12.5" r="12.5" transform="translate(4210 -36)" fill="#edf6f9"/>
    <circle id="Elipse_142" data-name="Elipse 142" cx="12.5" cy="12.5" r="12.5" transform="translate(4013 -36)" fill="#edf6f9"/>
    <ellipse id="Elipse_12" data-name="Elipse 12" cx="12.5" cy="12" rx="12.5" ry="12" transform="translate(4062 63)" fill="#edf6f9"/>
    <circle id="Elipse_31" data-name="Elipse 31" cx="12" cy="12" r="12" transform="translate(4260 63)" fill="#edf6f9"/>
    <circle id="Elipse_47" data-name="Elipse 47" cx="12" cy="12" r="12" transform="translate(4260 260)" fill="#edf6f9"/>
    <ellipse id="Elipse_63" data-name="Elipse 63" cx="12.5" cy="12" rx="12.5" ry="12" transform="translate(4062 260)" fill="#edf6f9"/>
    <circle id="Elipse_79" data-name="Elipse 79" cx="12" cy="12" r="12" transform="translate(4457 260)" fill="#edf6f9"/>
    <circle id="Elipse_95" data-name="Elipse 95" cx="12" cy="12" r="12" transform="translate(4457 63)" fill="#edf6f9"/>
    <ellipse id="Elipse_111" data-name="Elipse 111" cx="12" cy="12.5" rx="12" ry="12.5" transform="translate(4457 -135)" fill="#edf6f9"/>
    <ellipse id="Elipse_127" data-name="Elipse 127" cx="12" cy="12.5" rx="12" ry="12.5" transform="translate(4260 -135)" fill="#edf6f9"/>
    <circle id="Elipse_143" data-name="Elipse 143" cx="12.5" cy="12.5" r="12.5" transform="translate(4062 -135)" fill="#edf6f9"/>
    <ellipse id="Elipse_15" data-name="Elipse 15" cx="12.5" cy="12" rx="12.5" ry="12" transform="translate(4161 63)" fill="#edf6f9"/>
    <ellipse id="Elipse_39" data-name="Elipse 39" cx="12.5" cy="12" rx="12.5" ry="12" transform="translate(4358 63)" fill="#edf6f9"/>
    <ellipse id="Elipse_55" data-name="Elipse 55" cx="12.5" cy="12" rx="12.5" ry="12" transform="translate(4358 260)" fill="#edf6f9"/>
    <ellipse id="Elipse_71" data-name="Elipse 71" cx="12.5" cy="12" rx="12.5" ry="12" transform="translate(4161 260)" fill="#edf6f9"/>
    <ellipse id="Elipse_87" data-name="Elipse 87" cx="12.5" cy="12" rx="12.5" ry="12" transform="translate(4555 260)" fill="#edf6f9"/>
    <ellipse id="Elipse_103" data-name="Elipse 103" cx="12.5" cy="12" rx="12.5" ry="12" transform="translate(4555 63)" fill="#edf6f9"/>
    <circle id="Elipse_119" data-name="Elipse 119" cx="12.5" cy="12.5" r="12.5" transform="translate(4555 -135)" fill="#edf6f9"/>
    <circle id="Elipse_135" data-name="Elipse 135" cx="12.5" cy="12.5" r="12.5" transform="translate(4358 -135)" fill="#edf6f9"/>
    <circle id="Elipse_151" data-name="Elipse 151" cx="12.5" cy="12.5" r="12.5" transform="translate(4161 -135)" fill="#edf6f9"/>
    <circle id="Elipse_19" data-name="Elipse 19" cx="12.5" cy="12.5" r="12.5" transform="translate(4161 161)" fill="#edf6f9"/>
    <circle id="Elipse_40" data-name="Elipse 40" cx="12.5" cy="12.5" r="12.5" transform="translate(4358 161)" fill="#edf6f9"/>
    <circle id="Elipse_56" data-name="Elipse 56" cx="12.5" cy="12.5" r="12.5" transform="translate(4358 358)" fill="#edf6f9"/>
    <circle id="Elipse_72" data-name="Elipse 72" cx="12.5" cy="12.5" r="12.5" transform="translate(4161 358)" fill="#edf6f9"/>
    <circle id="Elipse_88" data-name="Elipse 88" cx="12.5" cy="12.5" r="12.5" transform="translate(4555 358)" fill="#edf6f9"/>
    <circle id="Elipse_104" data-name="Elipse 104" cx="12.5" cy="12.5" r="12.5" transform="translate(4555 161)" fill="#edf6f9"/>
    <circle id="Elipse_120" data-name="Elipse 120" cx="12.5" cy="12.5" r="12.5" transform="translate(4555 -36)" fill="#edf6f9"/>
    <circle id="Elipse_136" data-name="Elipse 136" cx="12.5" cy="12.5" r="12.5" transform="translate(4358 -36)" fill="#edf6f9"/>
    <circle id="Elipse_152" data-name="Elipse 152" cx="12.5" cy="12.5" r="12.5" transform="translate(4161 -36)" fill="#edf6f9"/>
    <circle id="Elipse_23" data-name="Elipse 23" cx="12.5" cy="12.5" r="12.5" transform="translate(4062 161)" fill="#edf6f9"/>
    <ellipse id="Elipse_32" data-name="Elipse 32" cx="12" cy="12.5" rx="12" ry="12.5" transform="translate(4260 161)" fill="#edf6f9"/>
    <ellipse id="Elipse_48" data-name="Elipse 48" cx="12" cy="12.5" rx="12" ry="12.5" transform="translate(4260 358)" fill="#edf6f9"/>
    <circle id="Elipse_64" data-name="Elipse 64" cx="12.5" cy="12.5" r="12.5" transform="translate(4062 358)" fill="#edf6f9"/>
    <ellipse id="Elipse_80" data-name="Elipse 80" cx="12" cy="12.5" rx="12" ry="12.5" transform="translate(4457 358)" fill="#edf6f9"/>
    <ellipse id="Elipse_96" data-name="Elipse 96" cx="12" cy="12.5" rx="12" ry="12.5" transform="translate(4457 161)" fill="#edf6f9"/>
    <ellipse id="Elipse_112" data-name="Elipse 112" cx="12" cy="12.5" rx="12" ry="12.5" transform="translate(4457 -36)" fill="#edf6f9"/>
    <ellipse id="Elipse_128" data-name="Elipse 128" cx="12" cy="12.5" rx="12" ry="12.5" transform="translate(4260 -36)" fill="#edf6f9"/>
    <circle id="Elipse_144" data-name="Elipse 144" cx="12.5" cy="12.5" r="12.5" transform="translate(4062 -36)" fill="#edf6f9"/>
    <circle id="Elipse_14" data-name="Elipse 14" cx="12.5" cy="12.5" r="12.5" transform="translate(4062 13)" fill="#edf6f9"/>
    <ellipse id="Elipse_33" data-name="Elipse 33" cx="12" cy="12.5" rx="12" ry="12.5" transform="translate(4260 13)" fill="#edf6f9"/>
    <ellipse id="Elipse_49" data-name="Elipse 49" cx="12" cy="12.5" rx="12" ry="12.5" transform="translate(4260 210)" fill="#edf6f9"/>
    <circle id="Elipse_65" data-name="Elipse 65" cx="12.5" cy="12.5" r="12.5" transform="translate(4062 210)" fill="#edf6f9"/>
    <ellipse id="Elipse_81" data-name="Elipse 81" cx="12" cy="12.5" rx="12" ry="12.5" transform="translate(4457 210)" fill="#edf6f9"/>
    <ellipse id="Elipse_97" data-name="Elipse 97" cx="12" cy="12.5" rx="12" ry="12.5" transform="translate(4457 13)" fill="#edf6f9"/>
    <ellipse id="Elipse_113" data-name="Elipse 113" cx="12" cy="12.5" rx="12" ry="12.5" transform="translate(4457 -184)" fill="#edf6f9"/>
    <ellipse id="Elipse_129" data-name="Elipse 129" cx="12" cy="12.5" rx="12" ry="12.5" transform="translate(4260 -184)" fill="#edf6f9"/>
    <circle id="Elipse_145" data-name="Elipse 145" cx="12.5" cy="12.5" r="12.5" transform="translate(4062 -184)" fill="#edf6f9"/>
    <circle id="Elipse_18" data-name="Elipse 18" cx="12.5" cy="12.5" r="12.5" transform="translate(4161 13)" fill="#edf6f9"/>
    <circle id="Elipse_41" data-name="Elipse 41" cx="12.5" cy="12.5" r="12.5" transform="translate(4358 13)" fill="#edf6f9"/>
    <circle id="Elipse_57" data-name="Elipse 57" cx="12.5" cy="12.5" r="12.5" transform="translate(4358 210)" fill="#edf6f9"/>
    <circle id="Elipse_73" data-name="Elipse 73" cx="12.5" cy="12.5" r="12.5" transform="translate(4161 210)" fill="#edf6f9"/>
    <circle id="Elipse_89" data-name="Elipse 89" cx="12.5" cy="12.5" r="12.5" transform="translate(4555 210)" fill="#edf6f9"/>
    <circle id="Elipse_105" data-name="Elipse 105" cx="12.5" cy="12.5" r="12.5" transform="translate(4555 13)" fill="#edf6f9"/>
    <circle id="Elipse_121" data-name="Elipse 121" cx="12.5" cy="12.5" r="12.5" transform="translate(4555 -184)" fill="#edf6f9"/>
    <circle id="Elipse_137" data-name="Elipse 137" cx="12.5" cy="12.5" r="12.5" transform="translate(4358 -184)" fill="#edf6f9"/>
    <circle id="Elipse_153" data-name="Elipse 153" cx="12.5" cy="12.5" r="12.5" transform="translate(4161 -184)" fill="#edf6f9"/>
    <ellipse id="Elipse_22" data-name="Elipse 22" cx="12.5" cy="12" rx="12.5" ry="12" transform="translate(4161 112)" fill="#edf6f9"/>
    <ellipse id="Elipse_42" data-name="Elipse 42" cx="12.5" cy="12" rx="12.5" ry="12" transform="translate(4358 112)" fill="#edf6f9"/>
    <circle id="Elipse_58" data-name="Elipse 58" cx="12.5" cy="12.5" r="12.5" transform="translate(4358 309)" fill="#edf6f9"/>
    <circle id="Elipse_74" data-name="Elipse 74" cx="12.5" cy="12.5" r="12.5" transform="translate(4161 309)" fill="#edf6f9"/>
    <circle id="Elipse_90" data-name="Elipse 90" cx="12.5" cy="12.5" r="12.5" transform="translate(4555 309)" fill="#edf6f9"/>
    <ellipse id="Elipse_106" data-name="Elipse 106" cx="12.5" cy="12" rx="12.5" ry="12" transform="translate(4555 112)" fill="#edf6f9"/>
    <ellipse id="Elipse_122" data-name="Elipse 122" cx="12.5" cy="12" rx="12.5" ry="12" transform="translate(4555 -85)" fill="#edf6f9"/>
    <ellipse id="Elipse_138" data-name="Elipse 138" cx="12.5" cy="12" rx="12.5" ry="12" transform="translate(4358 -85)" fill="#edf6f9"/>
    <ellipse id="Elipse_154" data-name="Elipse 154" cx="12.5" cy="12" rx="12.5" ry="12" transform="translate(4161 -85)" fill="#edf6f9"/>
    <ellipse id="Elipse_26" data-name="Elipse 26" cx="12.5" cy="12" rx="12.5" ry="12" transform="translate(4062 112)" fill="#edf6f9"/>
    <circle id="Elipse_34" data-name="Elipse 34" cx="12" cy="12" r="12" transform="translate(4260 112)" fill="#edf6f9"/>
    <ellipse id="Elipse_50" data-name="Elipse 50" cx="12" cy="12.5" rx="12" ry="12.5" transform="translate(4260 309)" fill="#edf6f9"/>
    <circle id="Elipse_66" data-name="Elipse 66" cx="12.5" cy="12.5" r="12.5" transform="translate(4062 309)" fill="#edf6f9"/>
    <ellipse id="Elipse_82" data-name="Elipse 82" cx="12" cy="12.5" rx="12" ry="12.5" transform="translate(4457 309)" fill="#edf6f9"/>
    <circle id="Elipse_98" data-name="Elipse 98" cx="12" cy="12" r="12" transform="translate(4457 112)" fill="#edf6f9"/>
    <circle id="Elipse_114" data-name="Elipse 114" cx="12" cy="12" r="12" transform="translate(4457 -85)" fill="#edf6f9"/>
    <circle id="Elipse_130" data-name="Elipse 130" cx="12" cy="12" r="12" transform="translate(4260 -85)" fill="#edf6f9"/>
    <ellipse id="Elipse_146" data-name="Elipse 146" cx="12.5" cy="12" rx="12.5" ry="12" transform="translate(4062 -85)" fill="#edf6f9"/>
  </g>
</svg>
